<svg width="22" height="22" viewBox="0 0 22 22" fill="none" xmlns="http://www.w3.org/2000/svg">
<path fill-rule="evenodd" clip-rule="evenodd" d="M7.48923 4.75824C7.76737 4.72918 8.04955 4.71429 8.33508 4.71429C12.1542 4.71429 15.3734 7.37767 16.3594 11.0109C16.4383 11.0058 16.5177 11.0024 16.5975 11.0009C16.5651 11.0004 16.5326 11.0001 16.5 11.0001L16.4736 11.0001L17.6785 11H17.7259C19.2228 10.9747 20.4285 9.75298 20.4285 8.25C20.4285 6.73122 19.1973 5.5 17.6785 5.5C17.1686 5.5 16.6911 5.6388 16.2817 5.88068C16.2805 5.44168 16.2138 5.01807 16.0909 4.6191C15.4787 2.84544 13.7945 1.57143 11.8128 1.57143C9.77966 1.57143 8.05971 2.91245 7.48923 4.75824ZM19.7816 12.026C21.1248 13.0239 22 14.656 22 16.5C22 19.5375 19.6253 22 16.6959 22C16.6303 22 16.565 21.9987 16.5 21.9963V22H8.45988C8.41835 22.0006 8.37675 22 8.33508 22C3.73174 22 0 18.1305 0 13.3571C0 9.50269 2.4333 6.23755 5.79395 5.1233C6.25971 2.21891 8.77714 0 11.8128 0C14.4174 0 16.6404 1.63337 17.5135 3.93167C17.5682 3.92961 17.6233 3.92857 17.6785 3.92857C20.0652 3.92857 22 5.86334 22 8.25C22 9.87321 21.105 11.2874 19.7816 12.026ZM16.5 20.4286H8.45988H8.36945H8.33508C4.65284 20.4286 1.57143 17.3168 1.57143 13.3571C1.57143 9.39751 4.65284 6.28571 8.33508 6.28571C11.4587 6.28571 14.15 8.52503 14.8947 11.6216L14.897 11.6206C15.0022 12.0503 15.0693 12.4957 15.0942 12.9529C15.5838 12.7075 16.1285 12.5714 16.6959 12.5714C18.7042 12.5714 20.4286 14.2761 20.4286 16.5C20.4286 18.7083 18.7282 20.4046 16.738 20.4283L16.5 20.4286Z" fill="white" style="fill:white;fill-opacity:1;"/>
</svg>
