<svg width="24" height="19" viewBox="0 0 24 19" fill="none" xmlns="http://www.w3.org/2000/svg">
<path fill-rule="evenodd" clip-rule="evenodd" d="M10.0001 3.99464L10.0001 3.98876L4.33939 3.98869L9.76934 2.0266L9.76876 2.02499C9.87275 1.99877 9.98036 1.98944 10.0875 1.99743C10.1016 1.99848 10.1157 1.99984 10.1298 2.0015L10.13 2.00152C10.2771 2.01884 10.4184 2.06862 10.5439 2.14726L10.5439 2.14728C10.6694 2.22592 10.7759 2.33146 10.8556 2.45627L10.8557 2.45648C10.9354 2.5813 10.9864 2.72227 11.0049 2.86919L11.005 2.86947C11.0235 3.01646 11.0092 3.16574 10.963 3.30651L10.963 3.30662C10.9168 3.44742 10.8398 3.57619 10.7378 3.68361L10.7377 3.68371C10.6356 3.79108 10.511 3.87443 10.3728 3.92774L10.3726 3.92785C10.3596 3.93286 10.3465 3.93759 10.3333 3.94204C10.226 3.97834 10.1133 3.99611 10.0001 3.99464ZM0 3.42986V5.9888L9.97957 5.98892C10.3586 5.99317 10.7355 5.92538 11.0903 5.78854L11.0905 5.78844C11.3605 5.68424 11.6132 5.54174 11.8412 5.36594C11.9625 5.27232 12.0768 5.16927 12.183 5.05752L12.1831 5.05743C12.4886 4.73582 12.7189 4.35033 12.8573 3.92881L12.8573 3.9287C12.9956 3.50718 13.0386 3.06019 12.9831 2.62003L12.9831 2.61975C12.9275 2.17958 12.7749 1.75725 12.5362 1.38331L12.5361 1.3831C12.2974 1.00912 11.9785 0.692879 11.6026 0.457265L11.6026 0.457254C11.472 0.375376 11.3356 0.303946 11.1947 0.243416C10.9302 0.129764 10.65 0.054542 10.3625 0.0207449L10.3623 0.0207199C9.93403 -0.0296015 9.50007 0.0132491 9.09012 0.146162L9.08981 0.14531L9.05912 0.156397L9.05551 0.157616L9.05509 0.157756L9.05512 0.157846L0 3.42986ZM0 11.9983V14.0528L13.2058 18.7509L13.2057 18.7513C13.6836 18.942 14.1977 19.0249 14.7113 18.9941C14.9088 18.9822 15.1043 18.9537 15.2959 18.909C15.6026 18.8376 15.8991 18.7248 16.1771 18.5731C16.6288 18.3266 17.0206 17.9836 17.3246 17.5683C17.6286 17.153 17.8372 16.6758 17.9357 16.1706C18.0342 15.6654 18.0201 15.1448 17.8943 14.6457C17.7686 14.1466 17.5344 13.6814 17.2083 13.2832C17.0076 13.0381 16.7752 12.8222 16.5178 12.6407C16.357 12.5273 16.1866 12.4274 16.008 12.3422C15.5443 12.1209 15.0376 12.0046 14.5239 12.0014V11.9984L0 11.9983ZM14.5103 13.9985L5.8151 13.9985L13.9842 16.9047L13.9835 16.9068C14.1776 16.9785 14.3847 17.0091 14.5916 16.9967C14.8115 16.9835 15.0258 16.922 15.2193 16.8164C15.4127 16.7109 15.5805 16.564 15.7106 16.3862C15.8408 16.2083 15.9302 16.004 15.9723 15.7876C16.0145 15.5713 16.0085 15.3484 15.9546 15.1346C15.9008 14.9209 15.8005 14.7217 15.6608 14.5512C15.5212 14.3807 15.3457 14.2431 15.1468 14.1482C14.9483 14.0535 14.7312 14.0036 14.5112 14.0023L14.5103 14.0023L14.5103 14.0019L14.5103 13.9985ZM19.018 4.24839L19.0172 4.24889L18.0336 2.50744L18.0325 2.50542L18.0345 2.50431C18.567 2.20377 19.1613 2.02935 19.7718 1.99445C19.8603 1.98939 19.9489 1.98728 20.0373 1.9881C20.559 1.99296 21.0757 2.09992 21.5579 2.30388C22.1218 2.54239 22.6234 2.90719 23.0241 3.37017C23.4248 3.83315 23.7139 4.38196 23.8692 4.97432C24.0245 5.56669 24.0417 6.1868 23.9197 6.78689C23.7976 7.38698 23.5395 7.95104 23.1651 8.43562C22.8451 8.84995 22.4474 9.19671 21.9952 9.45703C21.9185 9.50117 21.8403 9.54282 21.7606 9.58189C21.2108 9.85143 20.6066 9.99115 19.9944 9.99029V9.99H0V7.99H19.9972L19.9972 7.98784C20.303 7.98827 20.6049 7.91847 20.8795 7.78383C21.1541 7.64918 21.3941 7.45329 21.5811 7.21122C21.7681 6.96916 21.897 6.6874 21.958 6.38763C22.019 6.08786 22.0104 5.7781 21.9328 5.48219C21.8552 5.18628 21.7108 4.91213 21.5106 4.68086C21.3105 4.44958 21.0599 4.26735 20.7782 4.14821C20.4966 4.02907 20.1913 3.97618 19.886 3.99364C19.581 4.01108 19.2841 4.09823 19.018 4.24839Z" fill="white" style="fill:white;fill-opacity:1;"/>
</svg>
